<svg width="137" height="41" viewBox="0 0 137 41" fill="none" xmlns="http://www.w3.org/2000/svg">
<path d="M57.8052 4.80895V6.83736H52.5439V16.4453H50.0836V4.80895H57.8052ZM62.0126 16.6158C61.13 16.6158 60.3668 16.4283 59.7228 16.0533C59.0827 15.6745 58.5884 15.148 58.2399 14.4737C57.8914 13.7957 57.7172 13.0097 57.7172 12.1158C57.7172 11.2143 57.8914 10.4264 58.2399 9.75213C58.5884 9.0741 59.0827 8.54758 59.7228 8.17258C60.3668 7.7938 61.13 7.6044 62.0126 7.6044C62.8952 7.6044 63.6565 7.7938 64.2967 8.17258C64.9406 8.54758 65.4368 9.0741 65.7853 9.75213C66.1338 10.4264 66.3081 11.2143 66.3081 12.1158C66.3081 13.0097 66.1338 13.7957 65.7853 14.4737C65.4368 15.148 64.9406 15.6745 64.2967 16.0533C63.6565 16.4283 62.8952 16.6158 62.0126 16.6158ZM62.024 14.7408C62.4255 14.7408 62.7607 14.6271 63.0297 14.3999C63.2986 14.1688 63.5012 13.8544 63.6376 13.4567C63.7778 13.0589 63.8478 12.6063 63.8478 12.0987C63.8478 11.5911 63.7778 11.1385 63.6376 10.7408C63.5012 10.343 63.2986 10.0286 63.0297 9.79759C62.7607 9.56652 62.4255 9.45099 62.024 9.45099C61.6187 9.45099 61.2778 9.56652 61.0012 9.79759C60.7285 10.0286 60.5221 10.343 60.3819 10.7408C60.2456 11.1385 60.1774 11.5911 60.1774 12.0987C60.1774 12.6063 60.2456 13.0589 60.3819 13.4567C60.5221 13.8544 60.7285 14.1688 61.0012 14.3999C61.2778 14.6271 61.6187 14.7408 62.024 14.7408ZM67.8819 19.718V7.71804H70.2683V9.18395H70.3762C70.4823 8.9491 70.6357 8.71046 70.8365 8.46804C71.041 8.22183 71.3062 8.01728 71.6319 7.8544C71.9615 7.68774 72.3706 7.6044 72.8592 7.6044C73.4956 7.6044 74.0827 7.77107 74.6206 8.1044C75.1584 8.43395 75.5884 8.93205 75.9103 9.59872C76.2323 10.2616 76.3933 11.093 76.3933 12.093C76.3933 13.0665 76.2361 13.8885 75.9217 14.5589C75.6111 15.2256 75.1868 15.7313 74.649 16.076C74.1149 16.4169 73.5164 16.5874 72.8535 16.5874C72.3838 16.5874 71.9842 16.5097 71.6547 16.3544C71.3289 16.1991 71.0618 16.004 70.8535 15.7692C70.6452 15.5305 70.4861 15.29 70.3762 15.0476H70.3024V19.718H67.8819ZM70.2512 12.0817C70.2512 12.6006 70.3232 13.0533 70.4672 13.4396C70.6111 13.826 70.8194 14.1271 71.0922 14.343C71.3649 14.5552 71.6963 14.6612 72.0865 14.6612C72.4804 14.6612 72.8137 14.5533 73.0865 14.3374C73.3592 14.1177 73.5656 13.8146 73.7058 13.4283C73.8497 13.0381 73.9217 12.5893 73.9217 12.0817C73.9217 11.5779 73.8516 11.1347 73.7115 10.7521C73.5713 10.3696 73.3649 10.0703 73.0922 9.8544C72.8194 9.63849 72.4842 9.53054 72.0865 9.53054C71.6925 9.53054 71.3592 9.63471 71.0865 9.84304C70.8175 10.0514 70.6111 10.3468 70.4672 10.7294C70.3232 11.112 70.2512 11.5627 70.2512 12.0817ZM81.9501 16.6158C81.0675 16.6158 80.3043 16.4283 79.6603 16.0533C79.0202 15.6745 78.5259 15.148 78.1774 14.4737C77.8289 13.7957 77.6547 13.0097 77.6547 12.1158C77.6547 11.2143 77.8289 10.4264 78.1774 9.75213C78.5259 9.0741 79.0202 8.54758 79.6603 8.17258C80.3043 7.7938 81.0675 7.6044 81.9501 7.6044C82.8327 7.6044 83.594 7.7938 84.2342 8.17258C84.8781 8.54758 85.3743 9.0741 85.7228 9.75213C86.0713 10.4264 86.2456 11.2143 86.2456 12.1158C86.2456 13.0097 86.0713 13.7957 85.7228 14.4737C85.3743 15.148 84.8781 15.6745 84.2342 16.0533C83.594 16.4283 82.8327 16.6158 81.9501 16.6158ZM81.9615 14.7408C82.363 14.7408 82.6982 14.6271 82.9672 14.3999C83.2361 14.1688 83.4387 13.8544 83.5751 13.4567C83.7153 13.0589 83.7853 12.6063 83.7853 12.0987C83.7853 11.5911 83.7153 11.1385 83.5751 10.7408C83.4387 10.343 83.2361 10.0286 82.9672 9.79759C82.6982 9.56652 82.363 9.45099 81.9615 9.45099C81.5562 9.45099 81.2153 9.56652 80.9387 9.79759C80.666 10.0286 80.4596 10.343 80.3194 10.7408C80.1831 11.1385 80.1149 11.5911 80.1149 12.0987C80.1149 12.6063 80.1831 13.0589 80.3194 13.4567C80.4596 13.8544 80.666 14.1688 80.9387 14.3999C81.2153 14.6271 81.5562 14.7408 81.9615 14.7408ZM87.1376 19.0021V14.5249H87.8081C88.0012 14.4036 88.1565 14.2105 88.274 13.9453C88.3952 13.6802 88.4937 13.3677 88.5694 13.0078C88.649 12.648 88.7096 12.2597 88.7512 11.843C88.7967 11.4226 88.8365 10.9983 88.8706 10.5703L89.0978 7.71804H95.791V14.5249H97.1433V19.0021H94.8365V16.4453H89.5012V19.0021H87.1376ZM90.2172 14.5249H93.5069V9.58168H91.1547L91.0637 10.5703C90.9993 11.5021 90.9065 12.2938 90.7853 12.9453C90.6641 13.593 90.4747 14.1196 90.2172 14.5249ZM102.497 16.6158C101.603 16.6158 100.834 16.4264 100.19 16.0476C99.55 15.665 99.0576 15.1347 98.7129 14.4567C98.372 13.7786 98.2015 12.9983 98.2015 12.1158C98.2015 11.2218 98.3739 10.4377 98.7186 9.76349C99.0671 9.08546 99.5614 8.55705 100.202 8.17827C100.842 7.79569 101.603 7.6044 102.486 7.6044C103.247 7.6044 103.914 7.74266 104.486 8.01918C105.058 8.29569 105.51 8.68395 105.844 9.18395C106.177 9.68395 106.361 10.2711 106.395 10.9453H104.111C104.046 10.5097 103.876 10.1593 103.599 9.89418C103.327 9.62524 102.969 9.49077 102.525 9.49077C102.15 9.49077 101.823 9.59304 101.542 9.79759C101.266 9.99834 101.05 10.2919 100.895 10.6783C100.739 11.0646 100.662 11.5324 100.662 12.0817C100.662 12.6385 100.738 13.112 100.889 13.5021C101.044 13.8923 101.262 14.1896 101.542 14.3942C101.823 14.5987 102.15 14.701 102.525 14.701C102.802 14.701 103.05 14.6442 103.27 14.5305C103.493 14.4169 103.677 14.2521 103.821 14.0362C103.969 13.8165 104.065 13.5533 104.111 13.2464H106.395C106.357 13.9131 106.175 14.5002 105.849 15.0078C105.527 15.5116 105.082 15.9055 104.514 16.1896C103.946 16.4737 103.273 16.6158 102.497 16.6158ZM107.944 16.4453V7.71804H110.365V11.1044H111.047L113.422 7.71804H116.263L113.177 12.0476L116.297 16.4453H113.422L111.268 13.3487H110.365V16.4453H107.944ZM119.632 13.2521L122.774 7.71804H125.16V16.4453H122.854V10.8942L119.723 16.4453H117.319V7.71804H119.632V13.2521ZM131.078 16.6158C130.18 16.6158 129.407 16.4339 128.76 16.0703C128.116 15.7029 127.62 15.1839 127.271 14.5135C126.923 13.8393 126.748 13.0419 126.748 12.1214C126.748 11.2237 126.923 10.4358 127.271 9.75781C127.62 9.07978 128.11 8.55137 128.743 8.17258C129.379 7.7938 130.125 7.6044 130.981 7.6044C131.557 7.6044 132.093 7.69721 132.589 7.88281C133.089 8.06463 133.525 8.33925 133.896 8.70668C134.271 9.0741 134.563 9.53622 134.771 10.093C134.979 10.6461 135.084 11.2938 135.084 12.0362V12.701H127.714V11.201H132.805C132.805 10.8525 132.729 10.5438 132.578 10.2749C132.426 10.0059 132.216 9.79569 131.947 9.64418C131.682 9.48887 131.373 9.41122 131.021 9.41122C130.654 9.41122 130.328 9.49645 130.044 9.6669C129.764 9.83357 129.544 10.0589 129.385 10.343C129.226 10.6233 129.144 10.9358 129.14 11.2805V12.7067C129.14 13.1385 129.22 13.5116 129.379 13.826C129.542 14.1404 129.771 14.3828 130.067 14.5533C130.362 14.7237 130.712 14.8089 131.118 14.8089C131.387 14.8089 131.633 14.7711 131.856 14.6953C132.08 14.6196 132.271 14.5059 132.43 14.3544C132.589 14.2029 132.711 14.0173 132.794 13.7976L135.032 13.9453C134.919 14.4832 134.686 14.9529 134.334 15.3544C133.985 15.7521 133.534 16.0627 132.981 16.2862C132.432 16.5059 131.798 16.6158 131.078 16.6158Z" fill="#05FF00"/>
<path d="M56.0268 38.9313V32.3972H57.0495C57.3904 32.1889 57.6982 31.8953 57.9728 31.5166C58.2522 31.1378 58.4889 30.5956 58.6831 29.8901C58.8819 29.1846 59.0287 28.24 59.1234 27.0563L59.6064 20.8916H69.8904V32.3972H71.4245V38.9313H67.6177V35.437H59.8336V38.9313H56.0268ZM61.5666 32.3972H66.0836V24.0734H63.1575L62.9302 27.0563C62.8639 27.9465 62.7621 28.7254 62.6248 29.393C62.4922 30.0559 62.3336 30.6335 62.149 31.1259C61.969 31.6136 61.7749 32.0374 61.5666 32.3972ZM78.0723 35.6359C76.8886 35.6359 75.8753 35.4015 75.0325 34.9328C74.1897 34.4593 73.5434 33.8011 73.0936 32.9583C72.6438 32.1108 72.4189 31.1283 72.4189 30.0109C72.4189 28.8935 72.6438 27.9133 73.0936 27.0705C73.5434 26.223 74.1897 25.5649 75.0325 25.0961C75.8753 24.6226 76.8886 24.3859 78.0723 24.3859C79.256 24.3859 80.2692 24.6226 81.112 25.0961C81.9548 25.5649 82.6011 26.223 83.051 27.0705C83.5008 27.9133 83.7257 28.8935 83.7257 30.0109C83.7257 31.1283 83.5008 32.1108 83.051 32.9583C82.6011 33.8011 81.9548 34.4593 81.112 34.9328C80.2692 35.4015 79.256 35.6359 78.0723 35.6359ZM78.1007 32.7381C78.4321 32.7381 78.7186 32.6269 78.96 32.4043C79.2015 32.1818 79.3886 31.8646 79.5211 31.4526C79.6537 31.0407 79.72 30.5506 79.72 29.9825C79.72 29.4095 79.6537 28.9195 79.5211 28.5123C79.3886 28.1004 79.2015 27.7831 78.96 27.5606C78.7186 27.3381 78.4321 27.2268 78.1007 27.2268C77.7503 27.2268 77.4496 27.3381 77.1987 27.5606C76.9477 27.7831 76.756 28.1004 76.6234 28.5123C76.4908 28.9195 76.4245 29.4095 76.4245 29.9825C76.4245 30.5506 76.4908 31.0407 76.6234 31.4526C76.756 31.8646 76.9477 32.1818 77.1987 32.4043C77.4496 32.6269 77.7503 32.7381 78.1007 32.7381ZM85.3166 39.5279V24.5279H89.2086V26.4313H89.2939C89.4359 26.062 89.6442 25.7235 89.9189 25.4157C90.1935 25.1032 90.5344 24.8546 90.9416 24.67C91.3488 24.4806 91.8223 24.3859 92.362 24.3859C93.0817 24.3859 93.7659 24.5776 94.4146 24.9612C95.068 25.3447 95.5983 25.9484 96.0055 26.7722C96.4174 27.5961 96.6234 28.6662 96.6234 29.9825C96.6234 31.2419 96.4269 32.286 96.0339 33.1146C95.6457 33.9432 95.1248 34.5611 94.4714 34.9683C93.8227 35.3755 93.1101 35.5791 92.3336 35.5791C91.8223 35.5791 91.3654 35.4962 90.9629 35.3305C90.5652 35.16 90.2243 34.9304 89.9402 34.6416C89.6608 34.348 89.4454 34.0166 89.2939 33.6472H89.237V39.5279H85.3166ZM89.1518 29.9825C89.1518 30.5128 89.2205 30.972 89.3578 31.3603C89.4998 31.7438 89.6987 32.0421 89.9544 32.2552C90.2148 32.4635 90.5249 32.5677 90.8848 32.5677C91.2446 32.5677 91.55 32.4659 91.801 32.2623C92.0566 32.054 92.2508 31.758 92.3833 31.3745C92.5207 30.9863 92.5893 30.5222 92.5893 29.9825C92.5893 29.4427 92.5207 28.981 92.3833 28.5975C92.2508 28.2093 92.0566 27.9133 91.801 27.7097C91.55 27.5014 91.2446 27.3972 90.8848 27.3972C90.5249 27.3972 90.2148 27.5014 89.9544 27.7097C89.6987 27.9133 89.4998 28.2093 89.3578 28.5975C89.2205 28.981 89.1518 29.4427 89.1518 29.9825ZM103.521 35.6359C102.338 35.6359 101.325 35.4015 100.482 34.9328C99.6389 34.4593 98.9926 33.8011 98.5428 32.9583C98.093 32.1108 97.8681 31.1283 97.8681 30.0109C97.8681 28.8935 98.093 27.9133 98.5428 27.0705C98.9926 26.223 99.6389 25.5649 100.482 25.0961C101.325 24.6226 102.338 24.3859 103.521 24.3859C104.705 24.3859 105.718 24.6226 106.561 25.0961C107.404 25.5649 108.05 26.223 108.5 27.0705C108.95 27.9133 109.175 28.8935 109.175 30.0109C109.175 31.1283 108.95 32.1108 108.5 32.9583C108.05 33.8011 107.404 34.4593 106.561 34.9328C105.718 35.4015 104.705 35.6359 103.521 35.6359ZM103.55 32.7381C103.881 32.7381 104.168 32.6269 104.409 32.4043C104.651 32.1818 104.838 31.8646 104.97 31.4526C105.103 31.0407 105.169 30.5506 105.169 29.9825C105.169 29.4095 105.103 28.9195 104.97 28.5123C104.838 28.1004 104.651 27.7831 104.409 27.5606C104.168 27.3381 103.881 27.2268 103.55 27.2268C103.2 27.2268 102.899 27.3381 102.648 27.5606C102.397 27.7831 102.205 28.1004 102.073 28.5123C101.94 28.9195 101.874 29.4095 101.874 29.9825C101.874 30.5506 101.94 31.0407 102.073 31.4526C102.205 31.8646 102.397 32.1818 102.648 32.4043C102.899 32.6269 103.2 32.7381 103.55 32.7381ZM118.72 24.5279V27.4541H114.544V35.437H110.766V24.5279H118.72ZM123.854 30.437L126.893 24.5279H130.586V35.437H126.893V29.4995L123.854 35.437H120.16V24.5279H123.854V30.437Z" fill="black"/>
<path fill-rule="evenodd" clip-rule="evenodd" d="M22.3666 4.66168C22.3666 4.92221 21.9403 5.13537 21.4193 5.13537C20.6822 5.13537 20.4719 5.45131 20.4719 6.55642V7.97747H23.314H26.1561V17.4512C26.1561 23.4513 25.9823 26.9248 25.6824 26.9248C25.383 26.9248 25.2087 23.609 25.2087 17.9248V8.92484H19.9982H14.7877L14.6854 18.0433C14.6077 24.9415 14.5466 25.7487 14.4338 21.359C14.2628 14.6976 14.5622 14.9875 9.57715 16.6568L6.4982 17.688L6.36273 22.3064L6.22725 26.9248H3.4022H0.577148V31.4248C0.577148 34.1485 0.577148 35.7464 0.577148 35.7464C0.841464 35.7464 5.95725 34.5218 11.3596 32.8066C21.0441 29.7324 27.6757 27.8125 27.885 28.0224C27.9443 28.0816 21.9308 30.8844 14.5215 34.2513C7.11257 37.6178 1.05083 40.4376 1.05083 40.5172C1.05083 40.5968 3.67457 40.6617 6.88141 40.6617H12.712L20.7021 34.509C25.0969 31.1245 28.776 28.4392 28.8779 28.5415C28.9802 28.6438 27.5568 31.3164 25.7151 34.4806C23.8734 37.6448 22.3666 40.3301 22.3666 40.4476C22.3666 40.5655 25.564 40.6617 29.4719 40.6617H36.5771V33.7933V26.9248H33.735H30.8929V16.2224C30.8929 5.91884 30.8579 5.511 29.9456 5.27274C29.4245 5.13631 28.9982 4.83647 28.9982 4.60626C28.9982 4.37652 27.5061 4.188 25.6824 4.188C23.7877 4.188 22.3666 4.39121 22.3666 4.66168Z" fill="black"/>
<path d="M9.57715 0.227051V8.02816C9.57715 12.1686 9.69604 15.5564 9.84099 15.5564C9.98641 15.5564 11.0522 15.3182 12.2094 15.0264L14.314 14.4968V11.2369V7.97747H16.9193H19.5245V4.23868V0.227051H9.57715Z" fill="black"/>
<mask id="path-4-inside-1_97_1903" fill="white">
<path fill-rule="evenodd" clip-rule="evenodd" d="M14.2842 27.5663C12.6265 27.7528 11.2912 28.8202 11.0428 30.1575C10.9497 30.6589 11.0021 31.1696 11.1974 31.6651C11.3951 32.1666 12.633 34.1056 13.4595 35.2084C13.842 35.7187 14.5776 36.6483 14.6495 36.7121C14.806 36.8512 14.8694 36.8005 15.4413 36.0787C16.4028 34.8654 16.9898 34.0274 17.7614 32.7666C18.4062 31.713 18.5332 31.4032 18.572 30.7893C18.6677 29.2755 17.3747 27.9099 15.5571 27.6053C15.2445 27.5529 14.5836 27.5326 14.2842 27.5663ZM14.377 29.1166C14.0291 29.1781 13.7528 29.3065 13.4631 29.5416C13.0468 29.8795 12.865 30.2582 12.9021 30.7103C12.934 31.0995 13.1 31.3952 13.4488 31.6838C13.7599 31.9412 14.1032 32.0861 14.5182 32.1351C15.7545 32.2811 16.8389 31.4011 16.659 30.3978C16.5478 29.7781 15.9339 29.2445 15.1837 29.1154C14.919 29.0699 14.6393 29.0703 14.377 29.1166Z"/>
<path d="M14.377 29.1166C14.0291 29.1781 13.7528 29.3065 13.4631 29.5416C13.0468 29.8795 12.865 30.2582 12.9021 30.7103C12.934 31.0995 13.1 31.3952 13.4488 31.6838C13.7599 31.9412 14.1032 32.0861 14.5182 32.1351C15.7545 32.2811 16.8389 31.4011 16.659 30.3978C16.5478 29.7781 15.9339 29.2445 15.1837 29.1154C14.919 29.0699 14.6393 29.0703 14.377 29.1166Z"/>
</mask>
<path fill-rule="evenodd" clip-rule="evenodd" d="M14.2842 27.5663C12.6265 27.7528 11.2912 28.8202 11.0428 30.1575C10.9497 30.6589 11.0021 31.1696 11.1974 31.6651C11.3951 32.1666 12.633 34.1056 13.4595 35.2084C13.842 35.7187 14.5776 36.6483 14.6495 36.7121C14.806 36.8512 14.8694 36.8005 15.4413 36.0787C16.4028 34.8654 16.9898 34.0274 17.7614 32.7666C18.4062 31.713 18.5332 31.4032 18.572 30.7893C18.6677 29.2755 17.3747 27.9099 15.5571 27.6053C15.2445 27.5529 14.5836 27.5326 14.2842 27.5663ZM14.377 29.1166C14.0291 29.1781 13.7528 29.3065 13.4631 29.5416C13.0468 29.8795 12.865 30.2582 12.9021 30.7103C12.934 31.0995 13.1 31.3952 13.4488 31.6838C13.7599 31.9412 14.1032 32.0861 14.5182 32.1351C15.7545 32.2811 16.8389 31.4011 16.659 30.3978C16.5478 29.7781 15.9339 29.2445 15.1837 29.1154C14.919 29.0699 14.6393 29.0703 14.377 29.1166Z" fill="#05FF00"/>
<path d="M14.377 29.1166C14.0291 29.1781 13.7528 29.3065 13.4631 29.5416C13.0468 29.8795 12.865 30.2582 12.9021 30.7103C12.934 31.0995 13.1 31.3952 13.4488 31.6838C13.7599 31.9412 14.1032 32.0861 14.5182 32.1351C15.7545 32.2811 16.8389 31.4011 16.659 30.3978C16.5478 29.7781 15.9339 29.2445 15.1837 29.1154C14.919 29.0699 14.6393 29.0703 14.377 29.1166Z" fill="white"/>
<path d="M14.377 29.1166L14.2901 28.6242L14.2901 28.6242L14.377 29.1166ZM13.4631 29.5416L13.7782 29.9299L13.7782 29.9299L13.4631 29.5416ZM12.9021 30.7103L13.4004 30.6694L13.4004 30.6694L12.9021 30.7103ZM13.4488 31.6838L13.7676 31.2985L13.7676 31.2985L13.4488 31.6838ZM14.5182 32.1351L14.5768 31.6385L14.5768 31.6385L14.5182 32.1351ZM16.659 30.3978L16.1668 30.486L16.1668 30.4861L16.659 30.3978ZM15.1837 29.1154L15.0989 29.6082L15.0989 29.6082L15.1837 29.1154ZM14.2901 28.6242C13.8538 28.7013 13.4999 28.8678 13.1481 29.1534L13.7782 29.9299C14.0057 29.7452 14.2043 29.6549 14.464 29.609L14.2901 28.6242ZM13.1481 29.1534C12.6304 29.5735 12.3506 30.1029 12.4038 30.7512L13.4004 30.6694C13.3794 30.4135 13.4633 30.1854 13.7782 29.9299L13.1481 29.1534ZM12.4038 30.7512C12.4485 31.2963 12.6954 31.7094 13.1301 32.069L13.7676 31.2985C13.5047 31.081 13.4195 30.9028 13.4004 30.6694L12.4038 30.7512ZM13.1301 32.069C13.518 32.39 13.9525 32.5718 14.4595 32.6316L14.5768 31.6385C14.254 31.6004 14.0018 31.4923 13.7676 31.2985L13.1301 32.069ZM14.4595 32.6316C15.2084 32.7201 15.9241 32.5001 16.4347 32.0857C16.9465 31.6704 17.2801 31.0284 17.1511 30.3095L16.1668 30.4861C16.2178 30.7704 16.0992 31.0702 15.8046 31.3092C15.5089 31.5491 15.0643 31.6961 14.5768 31.6385L14.4595 32.6316ZM17.1511 30.3095C16.9938 29.4321 16.1704 28.7778 15.2685 28.6227L15.0989 29.6082C15.6974 29.7111 16.1019 30.124 16.1668 30.486L17.1511 30.3095ZM15.2685 28.6227C14.9475 28.5674 14.6096 28.5678 14.2901 28.6242L14.464 29.609C14.669 29.5728 14.8906 29.5723 15.0989 29.6082L15.2685 28.6227ZM14.2842 27.5663L14.396 28.5601L14.396 28.5601L14.2842 27.5663ZM11.0428 30.1575L10.0596 29.9749L10.0596 29.9749L11.0428 30.1575ZM11.1974 31.6651L12.1278 31.2984L12.1277 31.2984L11.1974 31.6651ZM13.4595 35.2084L12.6593 35.8081L12.6593 35.8081L13.4595 35.2084ZM14.6495 36.7121L13.9854 37.4598L13.9855 37.4599L14.6495 36.7121ZM15.4413 36.0787L14.6576 35.4576L14.6576 35.4576L15.4413 36.0787ZM17.7614 32.7666L18.6143 33.2886L18.6144 33.2886L17.7614 32.7666ZM18.572 30.7893L17.574 30.7262V30.7262L18.572 30.7893ZM15.5571 27.6053L15.7224 26.619L15.7224 26.619L15.5571 27.6053ZM14.1725 26.5726C12.2076 26.7936 10.41 28.0886 10.0596 29.9749L12.026 30.3401C12.1724 29.5518 13.0454 28.712 14.396 28.5601L14.1725 26.5726ZM10.0596 29.9749C9.93071 30.6692 10.0062 31.37 10.2671 32.0319L12.1277 31.2984C11.998 30.9693 11.9687 30.6487 12.026 30.3401L10.0596 29.9749ZM10.2671 32.0319C10.4088 32.3914 10.8286 33.0896 11.2498 33.7494C11.6956 34.4477 12.2263 35.2303 12.6593 35.8081L14.2597 34.6087C13.8663 34.0837 13.3647 33.3454 12.9355 32.6731C12.7217 32.3382 12.5303 32.0266 12.3825 31.7725C12.3085 31.6452 12.248 31.5368 12.2021 31.4498C12.1792 31.4065 12.1615 31.3711 12.1482 31.3434C12.1416 31.3297 12.1367 31.3189 12.1331 31.3108C12.1313 31.3069 12.13 31.3038 12.1291 31.3016C12.1282 31.2994 12.1277 31.2984 12.1278 31.2984L10.2671 32.0319ZM12.6593 35.8081C12.8578 36.0729 13.1432 36.4404 13.3868 36.7482C13.5089 36.9025 13.623 37.045 13.7126 37.1547C13.757 37.209 13.7982 37.2588 13.8325 37.299C13.8445 37.313 13.9132 37.3956 13.9854 37.4598L15.3136 35.9645C15.3678 36.0127 15.3978 36.0522 15.3543 36.0012C15.3331 35.9764 15.302 35.939 15.2614 35.8893C15.1809 35.7908 15.0738 35.6571 14.9551 35.5071C14.7173 35.2066 14.4437 34.8541 14.2597 34.6087L12.6593 35.8081ZM13.9855 37.4599C14.0318 37.501 14.2777 37.7319 14.6638 37.7688C15.0878 37.8093 15.3881 37.6001 15.5143 37.4991C15.6474 37.3927 15.7657 37.2601 15.859 37.1508C15.9611 37.0311 16.0828 36.8793 16.2251 36.6998L14.6576 35.4576C14.5138 35.639 14.4131 35.7641 14.3376 35.8526C14.2533 35.9515 14.2388 35.9583 14.2649 35.9373C14.2843 35.9219 14.5036 35.7444 14.8539 35.7778C15.018 35.7935 15.1408 35.8505 15.2127 35.8929C15.2477 35.9135 15.2733 35.9322 15.2881 35.9436C15.303 35.9551 15.3121 35.9632 15.3135 35.9644L13.9855 37.4599ZM16.2251 36.6998C17.2104 35.4563 17.8207 34.5854 18.6143 33.2886L16.9085 32.2446C16.1588 33.4694 15.5952 34.2744 14.6576 35.4576L16.2251 36.6998ZM18.6144 33.2886C18.9343 32.7658 19.1677 32.3619 19.3192 31.9924C19.4877 31.5813 19.5456 31.238 19.57 30.8524L17.574 30.7262C17.5596 30.9544 17.5345 31.073 17.4687 31.2337C17.3858 31.436 17.2333 31.7138 16.9084 32.2446L18.6144 33.2886ZM19.57 30.8524C19.7075 28.6784 17.8835 26.9813 15.7224 26.619L15.3918 28.5915C16.8659 28.8386 17.628 29.8726 17.574 30.7262L19.57 30.8524ZM15.7224 26.619C15.323 26.5521 14.5688 26.528 14.1724 26.5726L14.396 28.5601C14.5984 28.5373 15.166 28.5537 15.3919 28.5915L15.7224 26.619Z" fill="black" mask="url(#path-4-inside-1_97_1903)"/>
</svg>
