<svg width="141" height="53" viewBox="0 0 141 53" fill="none" xmlns="http://www.w3.org/2000/svg">
<path d="M61.8052 10.8099V12.8383H56.5439V22.4463H54.0836V10.8099H61.8052ZM66.0126 22.6167C65.13 22.6167 64.3668 22.4292 63.7228 22.0542C63.0827 21.6755 62.5884 21.1489 62.2399 20.4747C61.8914 19.7967 61.7172 19.0107 61.7172 18.1167C61.7172 17.2152 61.8914 16.4273 62.2399 15.7531C62.5884 15.0751 63.0827 14.5486 63.7228 14.1736C64.3668 13.7948 65.13 13.6054 66.0126 13.6054C66.8952 13.6054 67.6565 13.7948 68.2967 14.1736C68.9406 14.5486 69.4368 15.0751 69.7853 15.7531C70.1338 16.4273 70.3081 17.2152 70.3081 18.1167C70.3081 19.0107 70.1338 19.7967 69.7853 20.4747C69.4368 21.1489 68.9406 21.6755 68.2967 22.0542C67.6565 22.4292 66.8952 22.6167 66.0126 22.6167ZM66.024 20.7417C66.4255 20.7417 66.7607 20.6281 67.0297 20.4008C67.2986 20.1698 67.5012 19.8554 67.6376 19.4577C67.7778 19.0599 67.8478 18.6073 67.8478 18.0997C67.8478 17.5921 67.7778 17.1395 67.6376 16.7417C67.5012 16.344 67.2986 16.0296 67.0297 15.7986C66.7607 15.5675 66.4255 15.452 66.024 15.452C65.6187 15.452 65.2778 15.5675 65.0012 15.7986C64.7285 16.0296 64.5221 16.344 64.3819 16.7417C64.2456 17.1395 64.1774 17.5921 64.1774 18.0997C64.1774 18.6073 64.2456 19.0599 64.3819 19.4577C64.5221 19.8554 64.7285 20.1698 65.0012 20.4008C65.2778 20.6281 65.6187 20.7417 66.024 20.7417ZM71.8819 25.719V13.719H74.2683V15.1849H74.3762C74.4823 14.9501 74.6357 14.7114 74.8365 14.469C75.041 14.2228 75.3062 14.0183 75.6319 13.8554C75.9615 13.6887 76.3706 13.6054 76.8592 13.6054C77.4956 13.6054 78.0827 13.772 78.6206 14.1054C79.1584 14.4349 79.5884 14.933 79.9103 15.5997C80.2323 16.2626 80.3933 17.094 80.3933 18.094C80.3933 19.0675 80.2361 19.8895 79.9217 20.5599C79.6111 21.2266 79.1868 21.7323 78.649 22.077C78.1149 22.4179 77.5164 22.5883 76.8535 22.5883C76.3838 22.5883 75.9842 22.5107 75.6547 22.3554C75.3289 22.2001 75.0618 22.005 74.8535 21.7702C74.6452 21.5315 74.4861 21.291 74.3762 21.0486H74.3024V25.719H71.8819ZM74.2512 18.0827C74.2512 18.6016 74.3232 19.0542 74.4672 19.4406C74.6111 19.827 74.8194 20.1281 75.0922 20.344C75.3649 20.5561 75.6963 20.6622 76.0865 20.6622C76.4804 20.6622 76.8137 20.5542 77.0865 20.3383C77.3592 20.1186 77.5656 19.8156 77.7058 19.4292C77.8497 19.0391 77.9217 18.5902 77.9217 18.0827C77.9217 17.5789 77.8516 17.1357 77.7115 16.7531C77.5713 16.3705 77.3649 16.0713 77.0922 15.8554C76.8194 15.6395 76.4842 15.5315 76.0865 15.5315C75.6925 15.5315 75.3592 15.6357 75.0865 15.844C74.8175 16.0523 74.6111 16.3478 74.4672 16.7304C74.3232 17.113 74.2512 17.5637 74.2512 18.0827ZM85.9501 22.6167C85.0675 22.6167 84.3043 22.4292 83.6603 22.0542C83.0202 21.6755 82.5259 21.1489 82.1774 20.4747C81.8289 19.7967 81.6547 19.0107 81.6547 18.1167C81.6547 17.2152 81.8289 16.4273 82.1774 15.7531C82.5259 15.0751 83.0202 14.5486 83.6603 14.1736C84.3043 13.7948 85.0675 13.6054 85.9501 13.6054C86.8327 13.6054 87.594 13.7948 88.2342 14.1736C88.8781 14.5486 89.3743 15.0751 89.7228 15.7531C90.0713 16.4273 90.2456 17.2152 90.2456 18.1167C90.2456 19.0107 90.0713 19.7967 89.7228 20.4747C89.3743 21.1489 88.8781 21.6755 88.2342 22.0542C87.594 22.4292 86.8327 22.6167 85.9501 22.6167ZM85.9615 20.7417C86.363 20.7417 86.6982 20.6281 86.9672 20.4008C87.2361 20.1698 87.4387 19.8554 87.5751 19.4577C87.7153 19.0599 87.7853 18.6073 87.7853 18.0997C87.7853 17.5921 87.7153 17.1395 87.5751 16.7417C87.4387 16.344 87.2361 16.0296 86.9672 15.7986C86.6982 15.5675 86.363 15.452 85.9615 15.452C85.5562 15.452 85.2153 15.5675 84.9387 15.7986C84.666 16.0296 84.4596 16.344 84.3194 16.7417C84.1831 17.1395 84.1149 17.5921 84.1149 18.0997C84.1149 18.6073 84.1831 19.0599 84.3194 19.4577C84.4596 19.8554 84.666 20.1698 84.9387 20.4008C85.2153 20.6281 85.5562 20.7417 85.9615 20.7417ZM91.1376 25.0031V20.5258H91.8081C92.0012 20.4046 92.1565 20.2114 92.274 19.9463C92.3952 19.6811 92.4937 19.3686 92.5694 19.0088C92.649 18.6489 92.7096 18.2607 92.7512 17.844C92.7967 17.4236 92.8365 16.9993 92.8706 16.5713L93.0978 13.719H99.791V20.5258H101.143V25.0031H98.8365V22.4463H93.5012V25.0031H91.1376ZM94.2172 20.5258H97.5069V15.5827H95.1547L95.0637 16.5713C94.9993 17.5031 94.9065 18.2948 94.7853 18.9463C94.6641 19.594 94.4747 20.1205 94.2172 20.5258ZM106.497 22.6167C105.603 22.6167 104.834 22.4273 104.19 22.0486C103.55 21.666 103.058 21.1357 102.713 20.4577C102.372 19.7796 102.202 18.9993 102.202 18.1167C102.202 17.2228 102.374 16.4387 102.719 15.7645C103.067 15.0864 103.561 14.558 104.202 14.1792C104.842 13.7967 105.603 13.6054 106.486 13.6054C107.247 13.6054 107.914 13.7436 108.486 14.0202C109.058 14.2967 109.51 14.6849 109.844 15.1849C110.177 15.6849 110.361 16.272 110.395 16.9463H108.111C108.046 16.5107 107.876 16.1603 107.599 15.8952C107.327 15.6262 106.969 15.4917 106.525 15.4917C106.15 15.4917 105.823 15.594 105.542 15.7986C105.266 15.9993 105.05 16.2929 104.895 16.6792C104.739 17.0656 104.662 17.5334 104.662 18.0827C104.662 18.6395 104.738 19.113 104.889 19.5031C105.044 19.8933 105.262 20.1906 105.542 20.3952C105.823 20.5997 106.15 20.702 106.525 20.702C106.802 20.702 107.05 20.6452 107.27 20.5315C107.493 20.4179 107.677 20.2531 107.821 20.0372C107.969 19.8175 108.065 19.5542 108.111 19.2474H110.395C110.357 19.9141 110.175 20.5012 109.849 21.0088C109.527 21.5126 109.082 21.9065 108.514 22.1906C107.946 22.4747 107.273 22.6167 106.497 22.6167ZM111.944 22.4463V13.719H114.365V17.1054H115.047L117.422 13.719H120.263L117.177 18.0486L120.297 22.4463H117.422L115.268 19.3497H114.365V22.4463H111.944ZM123.632 19.2531L126.774 13.719H129.16V22.4463H126.854V16.8952L123.723 22.4463H121.319V13.719H123.632V19.2531ZM135.078 22.6167C134.18 22.6167 133.407 22.4349 132.76 22.0713C132.116 21.7039 131.62 21.1849 131.271 20.5145C130.923 19.8402 130.748 19.0429 130.748 18.1224C130.748 17.2247 130.923 16.4368 131.271 15.7588C131.62 15.0808 132.11 14.5523 132.743 14.1736C133.379 13.7948 134.125 13.6054 134.981 13.6054C135.557 13.6054 136.093 13.6982 136.589 13.8838C137.089 14.0656 137.525 14.3402 137.896 14.7077C138.271 15.0751 138.563 15.5372 138.771 16.094C138.979 16.647 139.084 17.2948 139.084 18.0372V18.702H131.714V17.202H136.805C136.805 16.8535 136.729 16.5448 136.578 16.2758C136.426 16.0069 136.216 15.7967 135.947 15.6452C135.682 15.4898 135.373 15.4122 135.021 15.4122C134.654 15.4122 134.328 15.4974 134.044 15.6679C133.764 15.8345 133.544 16.0599 133.385 16.344C133.226 16.6243 133.144 16.9368 133.14 17.2815V18.7077C133.14 19.1395 133.22 19.5126 133.379 19.827C133.542 20.1414 133.771 20.3838 134.067 20.5542C134.362 20.7247 134.712 20.8099 135.118 20.8099C135.387 20.8099 135.633 20.772 135.856 20.6963C136.08 20.6205 136.271 20.5069 136.43 20.3554C136.589 20.2039 136.711 20.0183 136.794 19.7986L139.032 19.9463C138.919 20.4842 138.686 20.9539 138.334 21.3554C137.985 21.7531 137.534 22.0637 136.981 22.2872C136.432 22.5069 135.798 22.6167 135.078 22.6167Z" fill="#05FF00"/>
<path d="M60.0268 44.9323V38.3982H61.0495C61.3904 38.1899 61.6982 37.8963 61.9728 37.5175C62.2522 37.1387 62.4889 36.5966 62.6831 35.8911C62.8819 35.1856 63.0287 34.241 63.1234 33.0573L63.6064 26.8925H73.8904V38.3982H75.4245V44.9323H71.6177V41.438H63.8336V44.9323H60.0268ZM65.5666 38.3982H70.0836V30.0744H67.1575L66.9302 33.0573C66.8639 33.9475 66.7621 34.7263 66.6248 35.394C66.4922 36.0568 66.3336 36.6345 66.149 37.1269C65.969 37.6146 65.7749 38.0384 65.5666 38.3982ZM82.0723 41.6369C80.8886 41.6369 79.8753 41.4025 79.0325 40.9337C78.1897 40.4602 77.5434 39.8021 77.0936 38.9593C76.6438 38.1118 76.4189 37.1293 76.4189 36.0119C76.4189 34.8944 76.6438 33.9143 77.0936 33.0715C77.5434 32.224 78.1897 31.5658 79.0325 31.0971C79.8753 30.6236 80.8886 30.3869 82.0723 30.3869C83.256 30.3869 84.2692 30.6236 85.112 31.0971C85.9548 31.5658 86.6011 32.224 87.051 33.0715C87.5008 33.9143 87.7257 34.8944 87.7257 36.0119C87.7257 37.1293 87.5008 38.1118 87.051 38.9593C86.6011 39.8021 85.9548 40.4602 85.112 40.9337C84.2692 41.4025 83.256 41.6369 82.0723 41.6369ZM82.1007 38.7391C82.4321 38.7391 82.7186 38.6279 82.96 38.4053C83.2015 38.1828 83.3886 37.8655 83.5211 37.4536C83.6537 37.0417 83.72 36.5516 83.72 35.9834C83.72 35.4105 83.6537 34.9205 83.5211 34.5133C83.3886 34.1013 83.2015 33.7841 82.96 33.5616C82.7186 33.339 82.4321 33.2278 82.1007 33.2278C81.7503 33.2278 81.4496 33.339 81.1987 33.5616C80.9477 33.7841 80.756 34.1013 80.6234 34.5133C80.4908 34.9205 80.4245 35.4105 80.4245 35.9834C80.4245 36.5516 80.4908 37.0417 80.6234 37.4536C80.756 37.8655 80.9477 38.1828 81.1987 38.4053C81.4496 38.6279 81.7503 38.7391 82.1007 38.7391ZM89.3166 45.5289V30.5289H93.2086V32.4323H93.2939C93.4359 32.063 93.6442 31.7244 93.9189 31.4167C94.1935 31.1042 94.5344 30.8556 94.9416 30.6709C95.3488 30.4815 95.8223 30.3869 96.362 30.3869C97.0817 30.3869 97.7659 30.5786 98.4146 30.9621C99.068 31.3457 99.5983 31.9494 100.006 32.7732C100.417 33.5971 100.623 34.6672 100.623 35.9834C100.623 37.2429 100.427 38.2869 100.034 39.1155C99.6457 39.9441 99.1248 40.562 98.4714 40.9692C97.8227 41.3764 97.1101 41.58 96.3336 41.58C95.8223 41.58 95.3654 41.4972 94.9629 41.3315C94.5652 41.161 94.2243 40.9314 93.9402 40.6425C93.6608 40.349 93.4454 40.0175 93.2939 39.6482H93.237V45.5289H89.3166ZM93.1518 35.9834C93.1518 36.5137 93.2205 36.973 93.3578 37.3613C93.4998 37.7448 93.6987 38.0431 93.9544 38.2562C94.2148 38.4645 94.5249 38.5687 94.8848 38.5687C95.2446 38.5687 95.55 38.4669 95.801 38.2633C96.0566 38.0549 96.2508 37.759 96.3833 37.3755C96.5207 36.9872 96.5893 36.5232 96.5893 35.9834C96.5893 35.4437 96.5207 34.982 96.3833 34.5985C96.2508 34.2102 96.0566 33.9143 95.801 33.7107C95.55 33.5024 95.2446 33.3982 94.8848 33.3982C94.5249 33.3982 94.2148 33.5024 93.9544 33.7107C93.6987 33.9143 93.4998 34.2102 93.3578 34.5985C93.2205 34.982 93.1518 35.4437 93.1518 35.9834ZM107.521 41.6369C106.338 41.6369 105.325 41.4025 104.482 40.9337C103.639 40.4602 102.993 39.8021 102.543 38.9593C102.093 38.1118 101.868 37.1293 101.868 36.0119C101.868 34.8944 102.093 33.9143 102.543 33.0715C102.993 32.224 103.639 31.5658 104.482 31.0971C105.325 30.6236 106.338 30.3869 107.521 30.3869C108.705 30.3869 109.718 30.6236 110.561 31.0971C111.404 31.5658 112.05 32.224 112.5 33.0715C112.95 33.9143 113.175 34.8944 113.175 36.0119C113.175 37.1293 112.95 38.1118 112.5 38.9593C112.05 39.8021 111.404 40.4602 110.561 40.9337C109.718 41.4025 108.705 41.6369 107.521 41.6369ZM107.55 38.7391C107.881 38.7391 108.168 38.6279 108.409 38.4053C108.651 38.1828 108.838 37.8655 108.97 37.4536C109.103 37.0417 109.169 36.5516 109.169 35.9834C109.169 35.4105 109.103 34.9205 108.97 34.5133C108.838 34.1013 108.651 33.7841 108.409 33.5616C108.168 33.339 107.881 33.2278 107.55 33.2278C107.2 33.2278 106.899 33.339 106.648 33.5616C106.397 33.7841 106.205 34.1013 106.073 34.5133C105.94 34.9205 105.874 35.4105 105.874 35.9834C105.874 36.5516 105.94 37.0417 106.073 37.4536C106.205 37.8655 106.397 38.1828 106.648 38.4053C106.899 38.6279 107.2 38.7391 107.55 38.7391ZM122.72 30.5289V33.455H118.544V41.438H114.766V30.5289H122.72ZM127.854 36.438L130.893 30.5289H134.586V41.438H130.893V35.5005L127.854 41.438H124.16V30.5289H127.854V36.438Z" fill="black"/>
<path fill-rule="evenodd" clip-rule="evenodd" d="M28.4671 6.27878C28.4671 6.61167 27.9224 6.88404 27.2566 6.88404C26.3148 6.88404 26.0461 7.28775 26.0461 8.69983V10.5156H29.6776H33.3092V22.6209C33.3092 30.2878 33.0871 34.7261 32.7039 34.7261C32.3214 34.7261 32.0987 30.4893 32.0987 23.2261V11.7261H25.4408H18.7829L18.6522 23.3775C18.5529 32.1919 18.4748 33.2233 18.3308 27.6143C18.1123 19.1025 18.4948 19.4729 12.125 21.6059L8.19079 22.9235L8.01768 28.8248L7.84458 34.7261H4.23479H0.625V40.4761C0.625 43.9564 0.625 45.9981 0.625 45.9981C0.962737 45.9981 7.49958 44.4334 14.4026 42.2417C26.7772 38.3135 35.2509 35.8604 35.5184 36.1285C35.5941 36.2042 27.9103 39.7855 18.4427 44.0878C8.97582 48.3894 1.23026 51.9925 1.23026 52.0942C1.23026 52.1959 4.58282 52.2788 8.68045 52.2788H16.1306L26.3402 44.417C31.9558 40.0924 36.6569 36.6612 36.7871 36.7919C36.9178 36.9226 35.099 40.3375 32.7457 44.3807C30.3924 48.4239 28.4671 51.8551 28.4671 52.0052C28.4671 52.1559 32.5526 52.2788 37.5461 52.2788H46.625V43.5025V34.7261H42.9934H39.3618V21.0508C39.3618 7.88514 39.3171 7.36402 38.1513 7.05957C37.4855 6.88525 36.9408 6.50212 36.9408 6.20796C36.9408 5.91441 35.0342 5.67352 32.7039 5.67352C30.2829 5.67352 28.4671 5.93317 28.4671 6.27878Z" fill="black"/>
<path d="M12.125 0.612305V10.5804C12.125 15.871 12.2769 20.1998 12.4621 20.1998C12.6479 20.1998 14.0098 19.8954 15.4884 19.5225L18.1776 18.8459V14.6804V10.5156H21.5066H24.8355V5.73828V0.612305H12.125Z" fill="black"/>
<mask id="path-4-inside-1_97_1903" fill="white">
<path fill-rule="evenodd" clip-rule="evenodd" d="M25.5949 38.8583C23.3839 39.1109 21.6029 40.5572 21.2716 42.3691C21.1475 43.0485 21.2173 43.7404 21.4778 44.4118C21.7415 45.0912 23.3926 47.7184 24.4949 49.2125C25.005 49.9039 25.9862 51.1634 26.082 51.2499C26.2908 51.4383 26.3753 51.3697 27.1382 50.3917C28.4205 48.7478 29.2034 47.6124 30.2326 45.9041C31.0925 44.4767 31.2619 44.0569 31.3137 43.2251C31.4414 41.1741 29.7168 39.3239 27.2926 38.9111C26.8756 38.8401 25.9942 38.8127 25.5949 38.8583ZM25.7187 40.9588C25.2545 41.0421 24.8861 41.2161 24.4998 41.5346C23.9445 41.9924 23.702 42.5056 23.7514 43.1181C23.794 43.6455 24.0155 44.046 24.4806 44.437C24.8955 44.7858 25.3535 44.9821 25.9069 45.0485C27.5558 45.2464 29.0022 44.054 28.7622 42.6947C28.6139 41.855 27.7952 41.132 26.7945 40.9572C26.4416 40.8955 26.0684 40.8961 25.7187 40.9588Z"/>
<path d="M25.7187 40.9588C25.2545 41.0421 24.8861 41.2161 24.4998 41.5346C23.9445 41.9924 23.702 42.5056 23.7514 43.1181C23.794 43.6455 24.0155 44.046 24.4806 44.437C24.8955 44.7858 25.3535 44.9821 25.9069 45.0485C27.5558 45.2464 29.0022 44.054 28.7622 42.6947C28.6139 41.855 27.7952 41.132 26.7945 40.9572C26.4416 40.8955 26.0684 40.8961 25.7187 40.9588Z"/>
</mask>
<path fill-rule="evenodd" clip-rule="evenodd" d="M25.5949 38.8583C23.3839 39.1109 21.6029 40.5572 21.2716 42.3691C21.1475 43.0485 21.2173 43.7404 21.4778 44.4118C21.7415 45.0912 23.3926 47.7184 24.4949 49.2125C25.005 49.9039 25.9862 51.1634 26.082 51.2499C26.2908 51.4383 26.3753 51.3697 27.1382 50.3917C28.4205 48.7478 29.2034 47.6124 30.2326 45.9041C31.0925 44.4767 31.2619 44.0569 31.3137 43.2251C31.4414 41.1741 29.7168 39.3239 27.2926 38.9111C26.8756 38.8401 25.9942 38.8127 25.5949 38.8583ZM25.7187 40.9588C25.2545 41.0421 24.8861 41.2161 24.4998 41.5346C23.9445 41.9924 23.702 42.5056 23.7514 43.1181C23.794 43.6455 24.0155 44.046 24.4806 44.437C24.8955 44.7858 25.3535 44.9821 25.9069 45.0485C27.5558 45.2464 29.0022 44.054 28.7622 42.6947C28.6139 41.855 27.7952 41.132 26.7945 40.9572C26.4416 40.8955 26.0684 40.8961 25.7187 40.9588Z" fill="#05FF00"/>
<path d="M25.7187 40.9588C25.2545 41.0421 24.8861 41.2161 24.4998 41.5346C23.9445 41.9924 23.702 42.5056 23.7514 43.1181C23.794 43.6455 24.0155 44.046 24.4806 44.437C24.8955 44.7858 25.3535 44.9821 25.9069 45.0485C27.5558 45.2464 29.0022 44.054 28.7622 42.6947C28.6139 41.855 27.7952 41.132 26.7945 40.9572C26.4416 40.8955 26.0684 40.8961 25.7187 40.9588Z" fill="white"/>
<path d="M25.7187 40.9588L25.6304 40.4667L25.6304 40.4667L25.7187 40.9588ZM24.4998 41.5346L24.8178 41.9205L24.8178 41.9204L24.4998 41.5346ZM23.7514 43.1181L24.2498 43.0779L24.2498 43.0779L23.7514 43.1181ZM24.4806 44.437L24.8024 44.0543L24.8024 44.0543L24.4806 44.437ZM25.9069 45.0485L25.9665 44.5521L25.9664 44.5521L25.9069 45.0485ZM28.7622 42.6947L28.2698 42.7816L28.2698 42.7816L28.7622 42.6947ZM26.7945 40.9572L26.7084 41.4497L26.7085 41.4497L26.7945 40.9572ZM25.6304 40.4667C25.0766 40.566 24.63 40.7792 24.1817 41.1489L24.8178 41.9204C25.1422 41.653 25.4325 41.5181 25.807 41.451L25.6304 40.4667ZM24.1817 41.1488C23.5251 41.6902 23.188 42.3533 23.2531 43.1583L24.2498 43.0779C24.2159 42.6579 24.3639 42.2946 24.8178 41.9205L24.1817 41.1488ZM23.2531 43.1583C23.308 43.839 23.608 44.3567 24.1589 44.8198L24.8024 44.0543C24.423 43.7354 24.28 43.452 24.2498 43.0779L23.2531 43.1583ZM24.1589 44.8198C24.6505 45.233 25.2002 45.4673 25.8473 45.5449L25.9664 44.5521C25.5067 44.4969 25.1406 44.3386 24.8024 44.0543L24.1589 44.8198ZM25.8473 45.5449C26.805 45.6599 27.7158 45.3732 28.361 44.8414C29.0073 44.3085 29.4122 43.5006 29.2546 42.6077L28.2698 42.7816C28.3522 43.2481 28.1539 43.716 27.7249 44.0697C27.2945 44.4245 26.6577 44.635 25.9665 44.5521L25.8473 45.5449ZM29.2546 42.6077C29.0615 41.514 28.0374 40.6668 26.8806 40.4647L26.7085 41.4497C27.553 41.5973 28.1664 42.1961 28.2698 42.7816L29.2546 42.6077ZM26.8806 40.4647C26.4704 40.3929 26.0383 40.3935 25.6304 40.4667L25.807 41.451C26.0986 41.3986 26.4127 41.398 26.7084 41.4497L26.8806 40.4647ZM25.5949 38.8583L25.7084 39.8519L25.7084 39.8519L25.5949 38.8583ZM21.2716 42.3691L20.2879 42.1893L20.2879 42.1893L21.2716 42.3691ZM21.4778 44.4118L22.4101 44.05L22.4101 44.05L21.4778 44.4118ZM24.4949 49.2125L23.6902 49.8062L23.6902 49.8062L24.4949 49.2125ZM26.082 51.2499L25.4121 51.9924L25.4122 51.9925L26.082 51.2499ZM27.1382 50.3917L26.3497 49.7766L26.3497 49.7766L27.1382 50.3917ZM30.2326 45.9041L31.0891 46.4202L31.0891 46.4202L30.2326 45.9041ZM31.3137 43.2251L30.3157 43.163L30.3157 43.163L31.3137 43.2251ZM27.2926 38.9111L27.4605 37.9253L27.4604 37.9253L27.2926 38.9111ZM25.4814 37.8648C22.9532 38.1536 20.7183 39.8355 20.2879 42.1893L22.2553 42.549C22.4876 41.2788 23.8146 40.0682 25.7084 39.8519L25.4814 37.8648ZM20.2879 42.1893C20.1291 43.0585 20.2212 43.9376 20.5456 44.7736L22.4101 44.05C22.2134 43.5432 22.1658 43.0385 22.2553 42.5489L20.2879 42.1893ZM20.5456 44.7736C20.7193 45.2212 21.2575 46.1354 21.8252 47.0387C22.4169 47.9802 23.1196 49.0327 23.6902 49.8062L25.2996 48.6189C24.7679 47.8982 24.0939 46.89 23.5186 45.9745C22.9192 45.0208 22.5 44.2817 22.4101 44.05L20.5456 44.7736ZM23.6902 49.8062C23.9524 50.1616 24.331 50.6568 24.6549 51.0726C24.8171 51.2808 24.9682 51.4724 25.0861 51.619C25.1447 51.6919 25.1978 51.7571 25.2414 51.8089C25.2627 51.8343 25.3373 51.9249 25.4121 51.9924L26.752 50.5075C26.8028 50.5534 26.8258 50.5857 26.7731 50.5229C26.7426 50.4866 26.6994 50.4338 26.6446 50.3656C26.5356 50.2301 26.3915 50.0474 26.2327 49.8435C25.9145 49.4351 25.5475 48.9549 25.2996 48.6188L23.6902 49.8062ZM25.4122 51.9925C25.4701 52.0447 25.7284 52.2891 26.1313 52.3282C26.5739 52.3711 26.8904 52.1501 27.033 52.0342C27.1835 51.9119 27.3236 51.7542 27.4464 51.6081C27.578 51.4514 27.7366 51.2503 27.9266 51.0068L26.3497 49.7766C26.1582 50.0221 26.0203 50.1963 25.915 50.3217C25.8008 50.4576 25.7637 50.4886 25.7717 50.4821C25.7797 50.4756 25.8305 50.4345 25.919 50.3973C26.018 50.3556 26.1586 50.3214 26.3244 50.3375C26.4852 50.3531 26.6037 50.4097 26.6698 50.4493C26.7286 50.4845 26.7607 50.5154 26.7518 50.5074L25.4122 51.9925ZM27.9266 51.0068C29.2326 49.3326 30.0384 48.1643 31.0891 46.4202L29.376 45.3881C28.3684 47.0605 27.6085 48.1629 26.3497 49.7766L27.9266 51.0068ZM31.0891 46.4202C31.5168 45.7103 31.8137 45.1858 32.0035 44.7155C32.2099 44.2042 32.2811 43.7805 32.3118 43.2872L30.3157 43.163C30.2946 43.5015 30.2552 43.7035 30.1489 43.967C30.0261 44.2713 29.8083 44.6705 29.376 45.3881L31.0891 46.4202ZM32.3118 43.2872C32.4798 40.589 30.2405 38.3986 27.4605 37.9253L27.1248 39.8969C29.1932 40.2491 30.403 41.7592 30.3157 43.163L32.3118 43.2872ZM27.4604 37.9253C26.9554 37.8393 25.9791 37.8079 25.4813 37.8648L25.7084 39.8519C26.0092 39.8175 26.7959 39.8409 27.1248 39.8969L27.4604 37.9253Z" fill="black" mask="url(#path-4-inside-1_97_1903)"/>
</svg>
